<svg width="20" height="23" viewBox="0 0 20 23" fill="none" xmlns="http://www.w3.org/2000/svg">
<path fill-rule="evenodd" clip-rule="evenodd" d="M11.0069 13.0644V3.54763L12.4092 5.21881C12.7502 5.62516 13.356 5.67817 13.7623 5.3372C14.1687 4.99622 14.2217 4.39039 13.8807 3.98404L10.833 0.351907C10.6209 0.0991655 10.3064 -0.0168819 10.0011 0.0135387C9.71752 0.00518353 9.43298 0.12201 9.23644 0.356238L6.18871 3.98837C5.84774 4.39473 5.90075 5.00056 6.3071 5.34153C6.71345 5.6825 7.31928 5.6295 7.66025 5.22314L9.08594 3.52407V13.0644C9.08594 13.5949 9.51596 14.0249 10.0464 14.0249C10.5769 14.0249 11.0069 13.5949 11.0069 13.0644ZM2.64132 22.007H17.3687C18.7667 22.0522 19.9404 20.9631 20 19.5653V9.44825C19.9404 8.05051 18.7667 6.96138 17.3687 7.00654H15.7279C15.1753 7.00654 14.7274 7.45457 14.7274 8.00724C14.7274 8.55991 15.1753 9.00794 15.7279 9.00794H17.3687C17.7489 9.00794 18.009 9.2381 18.009 9.44825V19.5653C18.009 19.7755 17.7489 20.0056 17.3687 20.0056H2.64132C2.26113 20.0056 2.001 19.7755 2.001 19.5653V9.44825C2.001 9.2381 2.27114 9.00794 2.64132 9.00794H4.28214C4.8347 9.00794 5.28264 8.55991 5.28264 8.00724C5.28264 7.45457 4.8347 7.00654 4.28214 7.00654H2.64132C1.23947 6.95576 0.0595923 8.04647 0 9.44825V19.5653C0.0595923 20.9671 1.23947 22.0578 2.64132 22.007Z" fill="#989DAC"/>
</svg>
