<svg width="43" height="43" viewBox="0 0 43 43" fill="none" xmlns="http://www.w3.org/2000/svg">
<circle cx="21.4502" cy="21.2393" r="21" fill="#874DE3"/>
<path fill-rule="evenodd" clip-rule="evenodd" d="M8.89622 19.9218L28.0573 12.3414C28.7866 12.0529 29.5403 12.7009 29.3801 13.4787L26.1087 29.357C25.9553 30.1021 25.0944 30.4367 24.4899 29.9863L19.5505 26.3055L17.0331 28.915C16.5913 29.373 15.828 29.1876 15.6382 28.5762L13.8211 22.7226L8.95205 21.263C8.31318 21.0715 8.27558 20.1673 8.89622 19.9218ZM16.7548 23.8553L25.655 15.8652C25.8681 15.674 25.6206 15.3362 25.379 15.4885L14.8687 22.1061C14.6837 22.2226 14.5995 22.4514 14.664 22.6625L16.0739 27.2744C16.1036 27.3713 16.2426 27.358 16.2538 27.2571L16.5964 24.1647C16.6096 24.0452 16.6661 23.935 16.7548 23.8553Z" fill="#BDA3E0"/>
</svg>
