<svg width="43" height="43" viewBox="0 0 43 43" fill="none" xmlns="http://www.w3.org/2000/svg">
<circle cx="21.4502" cy="21.2393" r="21" fill="#874DE3"/>
<path fill-rule="evenodd" clip-rule="evenodd" d="M23.3456 22.6318C22.7929 26.196 20.086 28.2393 16.5814 28.2393C12.6431 28.2393 9.4502 25.1049 9.4502 21.2388C9.4502 17.3736 12.6431 14.2393 16.5814 14.2393C18.4865 14.2393 20.1558 14.9066 21.3708 16.0651L19.3242 18.0742C18.6311 17.3887 17.6826 17.0233 16.5814 17.0233C14.2632 17.0233 12.3837 18.9639 12.3837 21.2387C12.3837 23.5155 14.2632 25.3998 16.5814 25.3998C18.5245 25.3998 19.9959 24.4778 20.4203 22.6318H16.5814V19.8205H23.3282C23.4092 20.2735 23.4502 20.7475 23.4502 21.2387C23.4501 21.7259 23.4142 22.1899 23.3456 22.6318Z" fill="#fff"/>
<path fill-rule="evenodd" clip-rule="evenodd" d="M30.4503 17.4211H27.9048V19.9666H25.3594V22.5121H27.9048V25.0575H30.4503V22.5121H32.9957V19.9666H30.4503V17.4211Z" fill="#fff"/>
</svg>
