<svg width="43" height="43" viewBox="0 0 43 43" fill="none" xmlns="http://www.w3.org/2000/svg">
<circle cx="21.4502" cy="21.2393" r="21" fill="#874DE3"/>
<path fill-rule="evenodd" clip-rule="evenodd" d="M18.2083 13.2393H24.6641C27.2877 13.2393 29.4222 15.3738 29.4222 17.9974V24.4531C29.4222 27.0768 27.2877 29.2113 24.6641 29.2113H18.2083C15.5847 29.2113 13.4502 27.0768 13.4502 24.4531V17.9974C13.4502 15.3738 15.5847 13.2393 18.2083 13.2393ZM24.6641 27.6045C26.4045 27.6045 27.8154 26.1935 27.8154 24.4531V17.9974C27.8154 16.2569 26.4045 14.846 24.6641 14.846H18.2083C16.4679 14.846 15.057 16.2569 15.057 17.9974V24.4531C15.057 26.1935 16.4679 27.6045 18.2083 27.6045H24.6641Z" fill="#fff"/>
<path fill-rule="evenodd" clip-rule="evenodd" d="M17.4502 21.2392C17.4502 19.0337 19.2446 17.2393 21.4502 17.2393C23.6558 17.2393 25.4502 19.0336 25.4502 21.2392C25.4502 23.4449 23.6558 25.2393 21.4502 25.2393C19.2446 25.2393 17.4502 23.4448 17.4502 21.2392ZM19.0061 21.2393C19.0061 22.5892 20.1003 23.6834 21.4502 23.6834C22.8 23.6834 23.8943 22.5891 23.8943 21.2393C23.8943 19.8894 22.8001 18.7951 21.4502 18.7951C20.1003 18.7951 19.0061 19.8894 19.0061 21.2393Z" fill="#fff"/>
<circle cx="25.4771" cy="17.0452" r="1" fill="#fff"/>
</svg>
