<svg width="43" height="43" viewBox="0 0 43 43" fill="none" xmlns="http://www.w3.org/2000/svg">
<circle cx="21.4502" cy="21.2393" r="21" fill="#874DE3"/>
<path fill-rule="evenodd" clip-rule="evenodd" d="M31.1833 14.7434C31.8364 15.4066 32.0495 16.9099 32.0495 16.9099C32.0495 16.9099 32.2684 18.3783 32.2684 20.1441V22.3274C32.2684 24.0925 32.0495 25.6263 32.0495 25.6263C32.0495 25.6263 31.8364 27.1303 31.1833 27.7921C30.4342 28.5773 29.6033 28.6572 29.1352 28.7023C29.0848 28.7071 29.0386 28.7116 28.9971 28.7165C25.9433 28.9375 21.3593 28.8714 21.3593 28.8714C21.3593 28.8714 15.6866 28.8925 13.9411 28.7259C13.8583 28.7104 13.7578 28.6983 13.6441 28.6847C13.091 28.6181 12.2236 28.5138 11.5353 27.7935C10.8807 27.1295 10.6684 25.627 10.6684 25.627C10.6684 25.627 10.4502 24.0917 10.4502 22.3259V20.1441C10.4502 18.379 10.6684 16.9099 10.6684 16.9099C10.6684 16.9099 10.8807 15.4066 11.5353 14.7441C12.2833 13.9606 13.1129 13.8799 13.5814 13.8343C13.6326 13.8293 13.6795 13.8247 13.7215 13.8197C16.7746 13.5986 21.3593 13.5986 21.3593 13.5986C21.3593 13.5986 25.9433 13.5986 28.9971 13.819C29.0396 13.8242 29.0872 13.8288 29.1392 13.834C29.608 13.8801 30.4363 13.9617 31.1833 14.7434ZM24.2684 21.2401L18.4502 18.331V24.1492L24.2684 21.2401Z" fill="#fff"/>
</svg>
