<svg xmlns="http://www.w3.org/2000/svg" width="37" height="22" viewBox="0 0 37 22">
    <path fill="#FFF" fill-rule="evenodd" d="M33 9h4v4h-4v4h-4v-4h-4V9h4V5h4v4zm-11.164 4.188C20.967 18.79 16.713 22 11.206 22 5.017 22 0 17.075 0 11S5.017 0 11.206 0c2.994 0 5.617 1.049 7.526 2.87l-3.216 3.156c-1.089-1.077-2.58-1.651-4.31-1.651-3.643 0-6.596 3.05-6.596 6.624 0 3.578 2.953 6.539 6.596 6.539 3.054 0 5.366-1.449 6.033-4.35h-6.033V8.771h10.602c.128.711.192 1.456.192 2.228 0 .766-.057 1.495-.164 2.19z"/>
</svg>
