<svg xmlns="http://www.w3.org/2000/svg" width="24" height="24" viewBox="0 0 24 24">
    <g fill="#FFF" fill-rule="nonzero">
        <path d="M16.82 0H7.138A7.145 7.145 0 0 0 0 7.137v9.684a7.145 7.145 0 0 0 7.137 7.137h9.684a7.145 7.145 0 0 0 7.137-7.137V7.137C23.958 3.202 20.756 0 16.821 0zm4.728 16.82a4.727 4.727 0 0 1-4.727 4.728H7.137A4.727 4.727 0 0 1 2.41 16.82V7.137A4.727 4.727 0 0 1 7.137 2.41h9.684a4.727 4.727 0 0 1 4.727 4.727v9.684z"/>
        <path d="M12 6c-3.308 0-6 2.692-6 6s2.692 6 6 6 6-2.692 6-6-2.692-6-6-6zm0 9.666a3.666 3.666 0 1 1 0-7.332 3.666 3.666 0 0 1 0 7.332zm6.04-8.457a1.5 1.5 0 1 1 0-3 1.5 1.5 0 0 1 0 3z"/>
    </g>
</svg>
