<svg width="105" height="32" viewBox="0 0 105 32" fill="none" xmlns="http://www.w3.org/2000/svg">
<g id="Logo">
<path id="Combined Shape" fill-rule="evenodd" clip-rule="evenodd" d="M75.933 2.47767C75.933 3.58929 75.4223 4.18679 74.5527 4.18679C74.19 4.19569 73.8406 4.04971 73.5908 3.78496C73.3409 3.5202 73.214 3.16139 73.2414 2.79726C70.6803 3.49033 64.3556 13.531 63.9685 14.1454L63.9658 14.1497C63.1952 15.3134 62.5127 16.3801 61.8821 17.3657C60.2538 19.9107 58.9713 21.9152 57.4094 23.6541C55.8911 25.4411 53.8039 26.4404 51.5293 26.4331C49.6935 26.2942 48.5479 25.4605 48.4237 23.6541C47.0676 25.2416 45.1527 26.2379 43.0819 26.4331C42.2497 26.4936 41.4331 26.1831 40.8485 25.5839C40.2639 24.9846 39.9007 24.1778 39.9324 23.2953C40.0417 17.7589 44.0757 9.70322 46.6431 5.9098C48.5755 3.06127 50.6874 4.36743 51.1567 5.67358C51.4545 6.59034 51.2785 7.59628 50.6874 8.35538C47.4713 12.2738 42.0605 21.7226 42.9301 23.1955C43.1346 23.5396 43.535 23.7131 43.9239 23.6263C46.41 22.8961 48.8378 17.9431 50.7288 13.8996C51.0421 13.0299 51.8839 12.4623 52.7952 12.5232C53.5236 12.5932 53.9374 13.1179 54.1755 13.7213C54.4137 14.3247 54.3483 15.0067 54.0001 15.5531C52.1919 18.4989 49.9373 22.7948 51.9296 23.5568C53.1243 24.0137 55.0969 21.2159 55.8911 20.0274C56.2874 19.4343 56.6947 18.8321 57.1126 18.2144L57.1128 18.2141C58.0617 16.8112 59.0647 15.3285 60.1148 13.6912C60.8639 12.5232 68.2861 1.26878 71.8197 0.17105C73.9316 -0.468133 75.933 0.768548 75.933 2.47767ZM8.29843 25.0297C10.6449 17.8598 16.8977 8.63331 18.6645 6.38227C20.4312 4.13123 19.1409 2.6128 18.6645 2.21368C17.8045 1.41495 16.1523 0.6852 14.2751 2.79728C12.6625 5.11736 11.2009 7.54022 9.89958 10.0506C7.1423 15.0062 5.11068 20.3369 3.86768 25.8774C2.65533 26.0941 1.50915 26.6741 0.679192 27.5726C-0.256958 28.7049 -0.195312 30.3158 0.679192 31.4633C0.909848 31.7503 1.28239 31.9784 2.06284 31.9784C2.38793 31.9635 2.66189 31.9398 2.89391 31.7503C3.08032 31.5829 3.14711 31.2816 3.0257 31.0325C2.90497 30.7894 2.72577 30.7266 2.58024 30.6756C2.44291 30.6274 2.33555 30.5898 2.33555 30.4211C2.33555 29.6112 5.79768 29.2825 6.8053 29.1992C14.6203 28.6883 21.4503 28.8212 28.5612 30.3377C28.9201 30.435 29.0581 30.6018 28.9339 30.7685C28.9238 30.782 28.9118 30.7973 28.8985 30.8142C28.7469 31.007 28.4264 31.4147 28.9339 31.8106C29.1972 31.989 29.5241 32.0447 29.8311 31.9635C30.6454 31.7968 31.4322 30.6434 31.7359 29.5179C32.0338 28.2959 31.479 27.0248 30.3832 26.4193C27.8987 24.8352 15.4346 23.9459 8.29843 25.0297ZM103.994 8.59163C103.431 8.23235 102.735 8.15401 102.107 8.37923C101.479 8.60445 101.085 9.11711 100.778 9.74494C97.6865 15.7199 91.2491 22.0181 89.805 20.7222C89.1723 20.085 92.2481 15.3031 93.8769 13.2882L94.0833 13.0332C95.622 11.1327 96.8959 9.55932 96.4994 8.50826C96.2984 7.86381 95.8155 7.34736 95.1887 7.10632C94.5619 6.86529 93.86 6.92617 93.2833 7.27158C91.2543 8.35541 86.0644 15.9283 85.5951 19.4716C85.3459 21.013 86.0431 22.5539 87.3619 23.3762C88.5351 24.0015 91.8616 24.0432 95.8645 19.4855C94.8105 22.8163 92.8614 25.7885 90.2329 28.0728C87.2653 30.7546 85.4295 29.7681 84.7117 29.2122C84.162 28.737 83.8199 28.0633 83.7593 27.3364C83.734 27.0286 83.6775 26.4195 83.2358 26.4195C82.7942 26.4195 82.7103 27.0446 82.8345 27.9895C83.2348 30.3955 85.4862 31.9605 87.8726 31.9774C96.6375 31.9774 104.698 11.6764 104.919 11.0511C105.177 10.1159 104.803 9.12036 103.994 8.59163ZM28.9477 22.8065C29.4072 23.4315 30.1708 23.7518 30.9353 23.6402C34.3999 23.4178 40.6526 12.8713 39.9349 12.5517C39.783 12.4545 39.4656 12.6629 37.1743 15.4419C36.3737 16.4007 32.5365 20.9723 31.7635 20.8611C30.9905 20.75 32.426 17.8597 32.8815 16.9565C33.0257 16.6951 33.115 16.4066 33.1438 16.1089C33.1528 15.5117 32.9133 14.9378 32.4834 14.5261C32.0535 14.1145 31.4722 13.9024 30.8801 13.9413C30.1517 14.0027 29.5156 14.4616 29.2237 15.1363C29.207 15.1675 29.183 15.2138 29.1521 15.2732L29.152 15.2735C28.6471 16.2454 26.32 20.7251 24.4341 20.3192C24.0062 20.2358 24.0062 19.68 24.0062 19.4716C24.2157 16.641 25.5075 14.1322 27.6226 12.121C28.5523 11.297 29.3555 10.9768 30.3832 11.1344C31.0621 11.2737 31.1995 11.5522 31.4027 11.964L31.4322 12.0237C31.6657 12.4303 32.1405 12.6294 32.5917 12.51C33.0196 12.3433 33.1438 12.0793 33.1438 11.6068C33.1595 10.8156 33.0495 10.0686 32.8263 9.28634C32.4931 7.8889 31.2303 6.91953 29.8035 6.96582C25.8558 6.96582 20.7211 13.9135 20.7487 19.1659V19.7634C20.8868 22.9871 23.3851 25.5855 27.526 21.7087C27.9244 21.311 28.2978 20.8887 28.644 20.4443C28.3879 21.2376 28.4994 22.1048 28.9477 22.8065ZM74.4975 22.8065C74.9571 23.4315 75.7206 23.7518 76.4851 23.6402C79.9497 23.4178 86.2024 12.8713 85.4847 12.5517C85.3328 12.4545 85.0154 12.6629 82.7241 15.4419C81.9235 16.4007 78.0863 20.9723 77.3133 20.8611C76.5403 20.75 77.9759 17.8597 78.4314 16.9565C78.5756 16.6951 78.6648 16.4066 78.6936 16.1089C78.7026 15.5117 78.4631 14.9378 78.0332 14.5261C77.6033 14.1145 77.022 13.9024 76.4299 13.9413C75.7015 14.0027 75.0654 14.4616 74.7736 15.1363C74.7568 15.1675 74.7327 15.2139 74.7018 15.2735C74.1969 16.2454 71.8698 20.7251 69.9839 20.3192C69.556 20.2358 69.556 19.68 69.556 19.4716C69.7656 16.641 71.0573 14.1322 73.1724 12.121C74.1021 11.297 74.9053 10.9768 75.933 11.1344C76.6119 11.2737 76.7493 11.5522 76.9525 11.964C76.9622 11.9836 76.972 12.0035 76.982 12.0237C77.2155 12.4303 77.6903 12.6294 78.1415 12.51C78.5694 12.3433 78.6936 12.0793 78.6936 11.6068C78.7094 10.8156 78.5993 10.0686 78.3761 9.28634C78.0429 7.8889 76.7801 6.91953 75.3533 6.96582C71.4056 6.96582 66.2709 13.9135 66.2985 19.1659V19.7634C66.4366 22.9871 68.9349 25.5855 73.0758 21.7087C73.4742 21.311 73.8476 20.8887 74.1938 20.4443C73.9377 21.2376 74.0492 22.1048 74.4975 22.8065Z" fill="white"/>
</g>
</svg>
