<svg width="50" height="44" viewBox="0 0 50 44" fill="none" xmlns="http://www.w3.org/2000/svg">
<path d="M3.67948 14.0491C4.50116 7.3606 4.91199 4.01637 7.18198 2.00818C9.45197 0 12.8213 0 19.5601 0H31.9141C40.3453 0 44.5609 0 46.9489 2.69923C49.3368 5.39847 48.8228 9.58262 47.7947 17.9509L46.3205 29.9509C45.4988 36.6394 45.088 39.9836 42.818 41.9918C40.548 44 37.1787 44 30.4399 44H18.0859C9.65466 44 5.43905 44 3.05113 41.3008C0.663202 38.6015 1.17723 34.4174 2.20527 26.0491L3.67948 14.0491Z" fill="#FFF1F7"/>
<path d="M17 12H33C34.1046 12 35 12.8954 35 14V29.9427C35 30.6637 34.26 31.1478 33.5994 30.8589L28.8393 28.7776C28.4603 28.6119 28.0511 28.5263 27.6374 28.5263H17C15.8954 28.5263 15 27.6309 15 26.5263V14C15 12.8954 15.8954 12 17 12Z" fill="white" stroke="#F93B8C" stroke-width="2"/>
<path d="M14 15H26C26.5523 15 27 15.4477 27 16V16C27 16.5523 26.5523 17 26 17H14V15Z" fill="#F93B8C"/>
<path d="M14 19H21C21.5523 19 22 19.4477 22 20V20C22 20.5523 21.5523 21 21 21H14V19Z" fill="#F93B8C"/>
</svg>
