<svg width="50" height="44" viewBox="0 0 50 44" fill="none" xmlns="http://www.w3.org/2000/svg">
<path d="M3.67948 14.0491C4.50116 7.3606 4.91199 4.01637 7.18198 2.00818C9.45197 0 12.8213 0 19.5601 0H31.9141C40.3453 0 44.5609 0 46.9489 2.69923C49.3368 5.39847 48.8228 9.58262 47.7947 17.9509L46.3205 29.9509C45.4988 36.6394 45.088 39.9836 42.818 41.9918C40.548 44 37.1787 44 30.4399 44H18.0859C9.65466 44 5.43905 44 3.05113 41.3008C0.663202 38.6015 1.17723 34.4174 2.20527 26.0491L3.67948 14.0491Z" fill="#D0F1EE"/>
<circle cx="25" cy="22" r="10" fill="white" stroke="#44C0A0" stroke-width="2"/>
<path fill-rule="evenodd" clip-rule="evenodd" d="M28.1303 22.7857C28.0481 25.3364 27.5709 27.5684 26.8891 29.1592C26.5125 30.038 26.1044 30.6488 25.7312 31.0171C25.3648 31.3787 25.1195 31.4286 25 31.4286C24.8805 31.4286 24.6352 31.3787 24.2688 31.0171C23.8957 30.6488 23.4875 30.038 23.1109 29.1592C22.4291 27.5684 21.9519 25.3364 21.8697 22.7857H28.1303ZM29.7024 22.7857H36V21.2143H29.7024C29.5298 15.5059 27.4904 11 25 11C22.5096 11 20.4702 15.5059 20.2976 21.2143H14V22.7857H20.2976C20.4702 28.4941 22.5096 33 25 33C27.4904 33 29.5298 28.4941 29.7024 22.7857ZM21.8697 21.2143C21.9519 18.6636 22.4291 16.4316 23.1109 14.8408C23.4875 13.962 23.8957 13.3512 24.2688 12.9829C24.6352 12.6213 24.8805 12.5714 25 12.5714C25.1195 12.5714 25.3648 12.6213 25.7312 12.9829C26.1044 13.3512 26.5125 13.962 26.8891 14.8408C27.5709 16.4316 28.0481 18.6636 28.1303 21.2143H21.8697Z" fill="#44C0A0"/>
</svg>
