<svg width="50" height="44" viewBox="0 0 50 44" fill="none" xmlns="http://www.w3.org/2000/svg">
<path d="M3.67948 14.0491C4.50116 7.3606 4.91199 4.01637 7.18198 2.00818C9.45197 0 12.8213 0 19.5601 0H31.9141C40.3453 0 44.5609 0 46.9489 2.69923C49.3368 5.39847 48.8228 9.58262 47.7947 17.9509L46.3205 29.9509C45.4988 36.6394 45.088 39.9836 42.818 41.9918C40.548 44 37.1787 44 30.4399 44H18.0859C9.65466 44 5.43905 44 3.05113 41.3008C0.663202 38.6015 1.17723 34.4174 2.20527 26.0491L3.67948 14.0491Z" fill="#EAF8FF"/>
<circle r="4.07692" transform="matrix(1 0 0 -1 27.5385 16.0769)" fill="white" stroke="#57C2F5" stroke-width="2"/>
<circle r="4.07692" transform="matrix(1 0 0 -1 22.4616 16.0769)" fill="white" stroke="#57C2F5" stroke-width="2"/>
<path d="M25.9481 23.8461H29.1287C31.539 23.8461 33.6063 25.5657 34.0451 27.9357L34.36 29.6358C34.5877 30.8654 33.6439 32 32.3934 32H22.6835C21.433 32 20.4892 30.8654 20.7169 29.6358L21.0317 27.9357C21.4706 25.5657 23.5379 23.8461 25.9481 23.8461Z" fill="white" stroke="#57C2F5" stroke-width="2"/>
<path d="M20.8712 23.8461H24.0518C26.4621 23.8461 28.5294 25.5657 28.9682 27.9357L29.2831 29.6358C29.5108 30.8654 28.567 32 27.3165 32H17.6066C16.3561 32 15.4123 30.8654 15.64 29.6358L15.9548 27.9357C16.3937 25.5657 18.461 23.8461 20.8712 23.8461Z" fill="white" stroke="#57C2F5" stroke-width="2"/>
</svg>
