<svg width="50" height="44" viewBox="0 0 50 44" fill="none" xmlns="http://www.w3.org/2000/svg">
<path d="M3.67948 14.0491C4.50116 7.3606 4.91199 4.01637 7.18198 2.00818C9.45197 0 12.8213 0 19.5601 0H31.9141C40.3453 0 44.5609 0 46.9489 2.69923C49.3368 5.39847 48.8228 9.58262 47.7947 17.9509L46.3205 29.9509C45.4988 36.6394 45.088 39.9836 42.818 41.9918C40.548 44 37.1787 44 30.4399 44H18.0859C9.65466 44 5.43905 44 3.05113 41.3008C0.663202 38.6015 1.17723 34.4174 2.20527 26.0491L3.67948 14.0491Z" fill="#F5F4FD"/>
<path d="M20.4947 31.0315L21.4999 25C21.4999 25 23.6002 25.4257 24.9999 25.3889C26.2518 25.3559 28.111 25 28.111 25L29.4387 30.9745C29.53 31.3855 29.1036 31.7185 28.727 31.5302L25.4471 29.8903C25.1656 29.7495 24.8342 29.7495 24.5527 29.8903L21.2115 31.5609C20.846 31.7436 20.4275 31.4346 20.4947 31.0315Z" fill="white" stroke="#7B2BCA" stroke-width="2"/>
<path d="M18.2222 18.7778C18.2222 15.0345 21.2567 12 24.9999 12C28.7432 12 31.7777 15.0345 31.7777 18.7778C31.7777 22.521 28.7432 25.5556 24.9999 25.5556C21.2567 25.5556 18.2222 22.521 18.2222 18.7778Z" fill="white" stroke="#7B2BCA" stroke-width="2" stroke-linecap="round" stroke-linejoin="round"/>
</svg>
