<svg xmlns="http://www.w3.org/2000/svg" width="28" height="24" viewBox="0 0 28 24">
    <path fill="#FFF" fill-rule="nonzero" d="M26.143.136L.594 10.243c-.827.328-.777 1.533.075 1.789l6.492 1.946 2.423 7.805a1.108 1.108 0 0 0 1.86.451l3.356-3.479 6.586 4.908c.806.6 1.954.154 2.158-.84l4.362-21.17C28.12.615 27.115-.25 26.143.136zM22.94 4.835L11.073 15.488a.65.65 0 0 0-.212.413l-.456 4.123c-.015.134-.2.152-.24.023l-1.88-6.15a.652.652 0 0 1 .273-.741L22.57 4.332c.323-.203.653.248.369.503z"/>
</svg>
