<svg xmlns="http://www.w3.org/2000/svg" width="30" height="22" viewBox="0 0 30 22">
    <path fill="#FFF" fill-rule="nonzero" d="M29.699 5.047s-.293-2.067-1.191-2.979C27.367.874 26.088.868 25.502.797 21.303.494 15 .494 15 .494s-6.304 0-10.502.304c-.586.07-1.865.076-3.006 1.271C.592 2.98.3 5.047.3 5.047S0 7.067 0 9.494v3c0 2.428.3 4.539.3 4.539s.292 2.066 1.192 2.979c1.141 1.194 2.64 1.157 3.308 1.282 2.4.229 10.2.2 10.2.2s6.303.091 10.502-.213c.586-.069 1.865-.075 3.006-1.271.898-.91 1.191-2.978 1.191-2.978S30 14.923 30 12.496V9.494c0-2.428-.301-4.447-.301-4.447zM11 15.001v-8l8 4-8 4z"/>
</svg>
